<svg id="visual" viewBox="0 0 960 540" width="960" height="540" xmlns="http://www.w3.org/2000/svg" xmlns:xlink="http://www.w3.org/1999/xlink" version="1.1"><g transform="translate(494.55350771831206 248.94110554713433)"><path d="M98 -166.5C120.4 -156.9 127.3 -117.2 138.1 -84.4C148.8 -51.7 163.4 -25.8 175.7 7.1C187.9 40 197.9 80 182.3 104.4C166.7 128.8 125.6 137.6 91 155.7C56.3 173.9 28.2 201.5 -8.4 216C-45 230.6 -90 232.2 -115.4 208.7C-140.8 185.2 -146.6 136.6 -159.4 97.6C-172.3 58.7 -192.1 29.3 -205.6 -7.7C-219 -44.8 -226 -89.7 -210.8 -124.6C-195.6 -159.5 -158.3 -184.6 -119.5 -184.6C-80.7 -184.7 -40.3 -159.9 -1.3 -157.7C37.8 -155.5 75.7 -176.1 98 -166.5" fill="#1864ab"></path></g></svg>