<svg id="visual" viewBox="0 0 960 540" width="960" height="540" xmlns="http://www.w3.org/2000/svg" xmlns:xlink="http://www.w3.org/1999/xlink" version="1.1"><g transform="translate(474.1420605339637 253.32074180762342)"><path d="M89.6 -119.9C130.5 -113.1 188.1 -112.6 218.1 -87.6C248.2 -62.6 250.8 -13.1 235.4 27.8C220.1 68.6 186.7 100.8 152.7 122.5C118.6 144.3 83.8 155.6 48.6 166.4C13.3 177.2 -22.4 187.4 -61.5 186.4C-100.7 185.5 -143.3 173.3 -176.8 146.6C-210.4 119.8 -234.9 78.6 -232.8 38.5C-230.8 -1.6 -202.3 -40.5 -176 -73C-149.7 -105.6 -125.7 -131.9 -96.7 -144.2C-67.8 -156.4 -33.9 -154.7 -4.8 -147.3C24.3 -139.9 48.7 -126.7 89.6 -119.9" fill="#fff"></path></g></svg>