<svg id="visual" viewBox="0 0 900 600" width="900" height="600" xmlns="http://www.w3.org/2000/svg" xmlns:xlink="http://www.w3.org/1999/xlink" version="1.1"><rect x="0" y="0" width="900" height="600" fill="#a5d8ff"></rect><defs><linearGradient id="grad1_0" x1="33.3%" y1="100%" x2="100%" y2="0%"><stop offset="20%" stop-color="#a5d8ff" stop-opacity="1"></stop><stop offset="80%" stop-color="#a5d8ff" stop-opacity="1"></stop></linearGradient></defs><defs><linearGradient id="grad2_0" x1="0%" y1="100%" x2="66.7%" y2="0%"><stop offset="20%" stop-color="#a5d8ff" stop-opacity="1"></stop><stop offset="80%" stop-color="#a5d8ff" stop-opacity="1"></stop></linearGradient></defs><g transform="translate(900, 600)"><path d="M-405.6 0C-383.3 -29.7 -360.9 -59.4 -355.5 -95.2C-350 -131.1 -361.5 -173 -342.9 -198C-324.4 -223 -275.8 -230.9 -242.5 -242.5C-209.3 -254.1 -191.3 -269.4 -172.5 -298.8C-153.7 -328.2 -133.9 -371.6 -105 -391.8C-76.1 -412 -38 -408.8 0 -405.6L0 0Z" fill="#d0ebff"></path></g><g transform="translate(0, 0)"><path d="M405.6 0C396.7 34.3 387.7 68.6 377.7 101.2C367.6 133.8 356.5 164.7 340.3 196.5C324.2 228.3 302.9 261.2 269.4 269.4C235.9 277.7 190.2 261.3 163.5 283.2C136.8 305 129.1 365 105 391.8C80.9 418.6 40.4 412.1 0 405.6L0 0Z" fill="#d0ebff"></path></g></svg>