<svg id="visual" viewBox="0 0 900 600" width="900" height="600" xmlns="http://www.w3.org/2000/svg" xmlns:xlink="http://www.w3.org/1999/xlink" version="1.1"><path d="M0 350L21.5 351.8C43 353.7 86 357.3 128.8 366.7C171.7 376 214.3 391 257.2 399.7C300 408.3 343 410.7 385.8 409.7C428.7 408.7 471.3 404.3 514.2 397.5C557 390.7 600 381.3 642.8 382.5C685.7 383.7 728.3 395.3 771.2 396.2C814 397 857 387 878.5 382L900 377L900 601L878.5 601C857 601 814 601 771.2 601C728.3 601 685.7 601 642.8 601C600 601 557 601 514.2 601C471.3 601 428.7 601 385.8 601C343 601 300 601 257.2 601C214.3 601 171.7 601 128.8 601C86 601 43 601 21.5 601L0 601Z" fill="#ffffff"></path><path d="M0 438L21.5 434.3C43 430.7 86 423.3 128.8 425.3C171.7 427.3 214.3 438.7 257.2 445.5C300 452.3 343 454.7 385.8 456.5C428.7 458.3 471.3 459.7 514.2 461.5C557 463.3 600 465.7 642.8 457.2C685.7 448.7 728.3 429.3 771.2 427.2C814 425 857 440 878.5 447.5L900 455L900 601L878.5 601C857 601 814 601 771.2 601C728.3 601 685.7 601 642.8 601C600 601 557 601 514.2 601C471.3 601 428.7 601 385.8 601C343 601 300 601 257.2 601C214.3 601 171.7 601 128.8 601C86 601 43 601 21.5 601L0 601Z" fill="#eaf5ff"></path><path d="M0 447L21.5 446.8C43 446.7 86 446.3 128.8 450C171.7 453.7 214.3 461.3 257.2 460.8C300 460.3 343 451.7 385.8 450.5C428.7 449.3 471.3 455.7 514.2 460.8C557 466 600 470 642.8 477.7C685.7 485.3 728.3 496.7 771.2 496.7C814 496.7 857 485.3 878.5 479.7L900 474L900 601L878.5 601C857 601 814 601 771.2 601C728.3 601 685.7 601 642.8 601C600 601 557 601 514.2 601C471.3 601 428.7 601 385.8 601C343 601 300 601 257.2 601C214.3 601 171.7 601 128.8 601C86 601 43 601 21.5 601L0 601Z" fill="#d4ebff"></path><path d="M0 513L21.5 512.5C43 512 86 511 128.8 511.7C171.7 512.3 214.3 514.7 257.2 515.2C300 515.7 343 514.3 385.8 513.2C428.7 512 471.3 511 514.2 507.2C557 503.3 600 496.7 642.8 495.7C685.7 494.7 728.3 499.3 771.2 501.8C814 504.3 857 504.7 878.5 504.8L900 505L900 601L878.5 601C857 601 814 601 771.2 601C728.3 601 685.7 601 642.8 601C600 601 557 601 514.2 601C471.3 601 428.7 601 385.8 601C343 601 300 601 257.2 601C214.3 601 171.7 601 128.8 601C86 601 43 601 21.5 601L0 601Z" fill="#bde1ff"></path><path d="M0 541L21.5 546.3C43 551.7 86 562.3 128.8 562.2C171.7 562 214.3 551 257.2 547.5C300 544 343 548 385.8 549.7C428.7 551.3 471.3 550.7 514.2 546.5C557 542.3 600 534.7 642.8 532.2C685.7 529.7 728.3 532.3 771.2 534.7C814 537 857 539 878.5 540L900 541L900 601L878.5 601C857 601 814 601 771.2 601C728.3 601 685.7 601 642.8 601C600 601 557 601 514.2 601C471.3 601 428.7 601 385.8 601C343 601 300 601 257.2 601C214.3 601 171.7 601 128.8 601C86 601 43 601 21.5 601L0 601Z" fill="#a5d8ff"></path></svg>