<svg id="visual" viewBox="0 0 960 540" width="960" height="540" xmlns="http://www.w3.org/2000/svg" xmlns:xlink="http://www.w3.org/1999/xlink" version="1.1"><path d="M0 359L22.8 360.5C45.7 362 91.3 365 137 371.8C182.7 378.7 228.3 389.3 274 392.3C319.7 395.3 365.3 390.7 411.2 390.3C457 390 503 394 548.8 393C594.7 392 640.3 386 686 378C731.7 370 777.3 360 823 356.8C868.7 353.7 914.3 357.3 937.2 359.2L960 361L960 541L937.2 541C914.3 541 868.7 541 823 541C777.3 541 731.7 541 686 541C640.3 541 594.7 541 548.8 541C503 541 457 541 411.2 541C365.3 541 319.7 541 274 541C228.3 541 182.7 541 137 541C91.3 541 45.7 541 22.8 541L0 541Z" fill="#a5d8ff"></path><path d="M0 378L22.8 382.7C45.7 387.3 91.3 396.7 137 396.7C182.7 396.7 228.3 387.3 274 382C319.7 376.7 365.3 375.3 411.2 379.7C457 384 503 394 548.8 394.3C594.7 394.7 640.3 385.3 686 388C731.7 390.7 777.3 405.3 823 412.7C868.7 420 914.3 420 937.2 420L960 420L960 541L937.2 541C914.3 541 868.7 541 823 541C777.3 541 731.7 541 686 541C640.3 541 594.7 541 548.8 541C503 541 457 541 411.2 541C365.3 541 319.7 541 274 541C228.3 541 182.7 541 137 541C91.3 541 45.7 541 22.8 541L0 541Z" fill="#bde1ff"></path><path d="M0 394L22.8 405C45.7 416 91.3 438 137 439.5C182.7 441 228.3 422 274 420.3C319.7 418.7 365.3 434.3 411.2 437.8C457 441.3 503 432.7 548.8 427C594.7 421.3 640.3 418.7 686 415.5C731.7 412.3 777.3 408.7 823 408.3C868.7 408 914.3 411 937.2 412.5L960 414L960 541L937.2 541C914.3 541 868.7 541 823 541C777.3 541 731.7 541 686 541C640.3 541 594.7 541 548.8 541C503 541 457 541 411.2 541C365.3 541 319.7 541 274 541C228.3 541 182.7 541 137 541C91.3 541 45.7 541 22.8 541L0 541Z" fill="#d4ebff"></path><path d="M0 465L22.8 464.5C45.7 464 91.3 463 137 457.5C182.7 452 228.3 442 274 438.2C319.7 434.3 365.3 436.7 411.2 439C457 441.3 503 443.7 548.8 449.7C594.7 455.7 640.3 465.3 686 471C731.7 476.7 777.3 478.3 823 477.3C868.7 476.3 914.3 472.7 937.2 470.8L960 469L960 541L937.2 541C914.3 541 868.7 541 823 541C777.3 541 731.7 541 686 541C640.3 541 594.7 541 548.8 541C503 541 457 541 411.2 541C365.3 541 319.7 541 274 541C228.3 541 182.7 541 137 541C91.3 541 45.7 541 22.8 541L0 541Z" fill="#eaf5ff"></path><path d="M0 485L22.8 486.8C45.7 488.7 91.3 492.3 137 493.7C182.7 495 228.3 494 274 491.2C319.7 488.3 365.3 483.7 411.2 484.3C457 485 503 491 548.8 491.3C594.7 491.7 640.3 486.3 686 483C731.7 479.7 777.3 478.3 823 481C868.7 483.7 914.3 490.3 937.2 493.7L960 497L960 541L937.2 541C914.3 541 868.7 541 823 541C777.3 541 731.7 541 686 541C640.3 541 594.7 541 548.8 541C503 541 457 541 411.2 541C365.3 541 319.7 541 274 541C228.3 541 182.7 541 137 541C91.3 541 45.7 541 22.8 541L0 541Z" fill="#ffffff"></path></svg>